<?xml version="1.0" encoding="UTF-8"?> <svg xmlns="http://www.w3.org/2000/svg" width="50" height="50" viewBox="0 0 50 50" fill="none"> <path d="M24.9853 6.00201C12.8329 6.00201 2.98535 15.8517 2.98535 28.002C2.98535 33.5157 5.0195 38.5528 8.37206 42.4141L3.22554 48.7227L4.77438 49.9864L9.76169 43.875C13.7139 47.6661 19.0752 50 24.9854 50C30.9092 50 36.2822 47.6542 40.2384 43.8457L45.2227 49.9942L46.7773 48.7343L41.627 42.3809C44.9629 38.5235 46.9854 33.5 46.9854 28.002C46.9854 15.8516 37.1338 6.00201 24.9853 6.00201ZM24.9853 48.0001C13.9569 48.0001 4.98527 39.0294 4.98527 28.0021C4.98527 16.9728 13.9568 8.00203 24.9853 8.00203C36.0136 8.00203 44.9854 16.9727 44.9854 28.0021C44.9854 39.0293 36.0137 48.0001 24.9853 48.0001Z" fill="#880E4F"></path> <path d="M15.9414 0H9.99998C4.47666 0 0 4.47656 0 9.99998V16.0176H2.84368L15.9414 2.84575V0ZM13.9414 2.02152L2.01175 14.0176H2.00002V9.99998C2.00002 5.5899 5.58892 2.00002 9.99998 2.00002H13.9414V2.02152V2.02152Z" fill="#880E4F"></path> <path d="M40 0H34.0547V2.84575L47.1543 16.0177H50.0001V10.0001C50.0001 4.47656 45.5215 0 40 0ZM48.0001 14.0176H47.9863L36.0547 2.02152V2.00002H40C44.4111 2.00002 48 5.5899 48 9.99998V14.0176H48.0001Z" fill="#880E4F"></path> <path d="M23.9999 28H12.9746V30H26V12H23.9999V28Z" fill="#880E4F"></path> </svg> 