<?xml version="1.0" encoding="UTF-8"?> <svg xmlns="http://www.w3.org/2000/svg" width="50" height="50" viewBox="0 0 50 50" fill="none"> <path d="M50 32.2477L43.362 17.6856L36.1667 20.8758L36.6481 21.9392C35.1153 22.4271 33.4305 22.5397 31.7203 22.2644C30.6055 22.0893 29.4781 22.0893 28.376 22.2644C27.5019 22.402 26.6278 22.6648 25.8044 23.0276C25.4244 23.1902 25.057 23.3904 24.6896 23.6155L21.4847 25.1668C20.9906 25.0793 20.4966 25.0167 20.0025 24.9917C18.2544 24.9166 16.6075 24.4663 15.1888 23.6781L15.8728 22.7523L9.45021 18.1985L0 31.1593L6.39726 35.7131L7.08133 34.7874C8.29744 35.8633 9.24753 37.2644 9.86825 38.8783C9.91893 39.0159 9.9696 39.141 10.0329 39.2786L9.22219 40.3795C8.41145 41.4929 8.66481 43.0567 9.79225 43.8574C10.1596 44.1201 10.565 44.2577 10.983 44.3078C10.983 44.4329 10.9957 44.558 11.0084 44.6831C11.1224 45.3336 11.4771 45.9091 12.0218 46.3094C12.4525 46.6222 12.9719 46.7848 13.4913 46.7848C13.5673 46.7848 13.6306 46.7848 13.7066 46.7723C13.846 47.3478 14.188 47.8482 14.682 48.1985C15.1254 48.5113 15.6448 48.6739 16.1515 48.6739C16.4175 48.6739 16.6836 48.6364 16.9369 48.5488C17.1143 48.9366 17.393 49.2744 17.7477 49.5246C18.1784 49.8374 18.6977 50 19.2171 50C19.3565 50 19.4958 49.9875 19.6225 49.9625C20.2939 49.8499 20.8766 49.4996 21.2693 48.9617L21.776 48.2611L24.1956 49.6372C24.6263 49.8874 25.1077 50 25.5637 50C26.3111 50 27.0332 49.6998 27.5399 49.1243C27.8186 48.799 28.0213 48.4237 28.1226 48.0109C28.6167 48.1735 29.1361 48.211 29.6681 48.1235C30.5295 47.9858 31.2769 47.523 31.7836 46.8224C32.113 46.3595 32.3283 45.8215 32.379 45.2711C32.4044 45.0209 32.4044 44.7707 32.3664 44.533C33.2531 44.4829 34.1018 44.0951 34.6846 43.3945C35.1786 42.8065 35.432 42.0934 35.432 41.3428C35.622 41.3553 35.7993 41.3428 35.9894 41.3053C36.6861 41.1927 37.2941 40.8174 37.6995 40.2544C38.0415 39.779 38.2569 39.2286 38.3202 38.6406C38.3202 38.6155 38.3202 38.578 38.3329 38.553C38.5103 38.3278 38.6749 38.0901 38.827 37.8524C39.7517 36.4012 40.9552 35.2377 42.336 34.4245L42.8047 35.4379L50 32.2477ZM47.6564 31.372L43.7041 33.1235L38.5229 21.7515L42.4753 20L47.6564 31.372ZM9.85559 20.6506L13.3772 23.1527L6.43527 32.6606L5.99189 33.2736L2.47023 30.7715L9.85559 20.6506ZM10.6663 41.4054L11.7684 39.8916L11.8318 39.804C11.8571 39.7665 11.8951 39.729 11.9204 39.7039C11.9584 39.6789 11.9838 39.6414 12.0218 39.6289C12.0218 39.6289 12.0345 39.6289 12.0345 39.6164C12.0725 39.5914 12.1105 39.5788 12.1485 39.5538H12.1611C12.1991 39.5413 12.2498 39.5288 12.3005 39.5163H12.3131C12.3385 39.5163 12.3765 39.5038 12.4018 39.5038C12.4145 39.5038 12.4272 39.5038 12.4272 39.5038C12.4525 39.5038 12.4905 39.5038 12.5158 39.5163C12.5285 39.5163 12.5412 39.5163 12.5538 39.5163C12.5792 39.5163 12.6045 39.5288 12.6298 39.5288C12.6425 39.5288 12.6425 39.5288 12.6552 39.5413C12.6805 39.5538 12.7185 39.5663 12.7439 39.5788C12.7565 39.5788 12.7565 39.5914 12.7692 39.5914C12.7945 39.6039 12.8325 39.6289 12.8579 39.6414C13.0479 39.779 13.1619 39.9917 13.1619 40.2169C13.1619 40.2544 13.1619 40.2794 13.1619 40.317C13.1619 40.3545 13.1492 40.392 13.1492 40.417C13.1239 40.5046 13.0859 40.5922 13.0352 40.6673L11.8698 42.2686C11.6291 42.5939 11.1604 42.6689 10.831 42.4312C10.5016 42.1935 10.4256 41.7306 10.6663 41.4054ZM13.0732 44.8833C12.9085 44.7707 12.8072 44.5955 12.7692 44.4079C12.7312 44.2077 12.7819 44.02 12.8959 43.8574L15.5054 40.2794C15.6195 40.1168 15.7968 40.0167 15.9868 39.9792C16.0248 39.9792 16.0628 39.9667 16.1008 39.9667H16.1135C16.1515 39.9667 16.1768 39.9667 16.2148 39.9792H16.2275C16.2528 39.9792 16.2909 39.9917 16.3162 40.0042H16.3289C16.3669 40.0167 16.3922 40.0292 16.4175 40.0417C16.4302 40.0417 16.4302 40.0542 16.4429 40.0542C16.4682 40.0667 16.5062 40.0918 16.5315 40.1043C16.6962 40.2169 16.7976 40.392 16.8356 40.5797C16.8482 40.6422 16.8482 40.7048 16.8356 40.7798C16.8356 40.8299 16.8229 40.8924 16.7976 40.9425C16.7976 40.955 16.7976 40.9675 16.7849 40.9675C16.7722 40.98 16.7722 41.005 16.7596 41.0175C16.7596 41.0301 16.7469 41.0426 16.7469 41.0551C16.7342 41.0676 16.7216 41.0926 16.7216 41.1051C16.7089 41.1176 16.7089 41.1301 16.6962 41.1426L14.0866 44.7206C13.9726 44.8833 13.7953 44.9833 13.6053 45.0209C13.4279 45.0459 13.2252 45.0084 13.0732 44.8833ZM15.7208 46.7723C15.5561 46.6597 15.4548 46.4846 15.4168 46.2969C15.3788 46.0968 15.4294 45.9091 15.5435 45.7465L18.153 42.1685C18.1784 42.131 18.2037 42.1059 18.2417 42.0684C18.2544 42.0559 18.2544 42.0559 18.267 42.0434C18.2924 42.0184 18.3304 41.9934 18.3684 41.9683C18.381 41.9683 18.381 41.9558 18.3937 41.9558C18.4191 41.9433 18.4571 41.9183 18.4951 41.9058C18.5077 41.9058 18.5077 41.9058 18.5204 41.8933C18.5584 41.8808 18.5964 41.8683 18.6471 41.8557C18.6597 41.8557 18.6724 41.8557 18.6851 41.8432C18.6977 41.8432 18.6977 41.8432 18.7104 41.8432C18.7357 41.8432 18.7484 41.8432 18.7738 41.8432H18.7864C18.8244 41.8432 18.8624 41.8432 18.8878 41.8557C18.8878 41.8557 18.8878 41.8557 18.9004 41.8557C18.9384 41.8557 18.9638 41.8682 19.0018 41.8808H19.0144C19.0524 41.8933 19.0778 41.9058 19.1158 41.9183C19.1158 41.9183 19.1285 41.9183 19.1285 41.9308C19.1538 41.9433 19.1918 41.9683 19.2171 41.9808C19.2678 42.0184 19.3185 42.0684 19.3565 42.1185C19.4578 42.2436 19.5212 42.3937 19.5212 42.5563C19.5212 42.5939 19.5212 42.6189 19.5212 42.6564C19.5085 42.719 19.4958 42.7815 19.4831 42.8441C19.4831 42.8566 19.4705 42.8566 19.4705 42.8691C19.4451 42.9191 19.4198 42.9692 19.3945 43.0192L16.7849 46.5972C16.5189 46.935 16.0502 47.01 15.7208 46.7723ZM19.3438 48.2235C19.1411 48.2611 18.9511 48.211 18.7864 48.0984C18.6217 47.9858 18.5204 47.8107 18.4824 47.623C18.4444 47.4229 18.4951 47.2352 18.6091 47.0726L19.7745 45.4713C19.7872 45.4462 19.8125 45.4337 19.8252 45.4212C19.8379 45.4087 19.8632 45.3837 19.8759 45.3712C19.8885 45.3587 19.9139 45.3461 19.9392 45.3211C19.9519 45.3086 19.9772 45.2961 19.9899 45.2836C20.0152 45.2711 20.0405 45.2586 20.0659 45.2461C20.0785 45.2336 20.1039 45.2336 20.1165 45.221C20.1672 45.2085 20.2052 45.196 20.2559 45.1835C20.2939 45.1835 20.3319 45.171 20.3699 45.171C20.3826 45.171 20.3826 45.171 20.3952 45.171C20.4332 45.171 20.4586 45.171 20.4966 45.1835C20.5092 45.1835 20.5092 45.1835 20.5219 45.1835C20.5472 45.1835 20.5853 45.196 20.6106 45.2085H20.6233C20.6486 45.221 20.6866 45.2336 20.7119 45.2461C20.7246 45.2461 20.7246 45.2586 20.7373 45.2586C20.7626 45.2711 20.8006 45.2961 20.8259 45.3086C21.0413 45.4587 21.1553 45.7215 21.13 45.9842C21.1173 46.1093 21.0666 46.2344 20.9906 46.347L19.8252 47.9483C19.7112 48.0859 19.5465 48.1985 19.3438 48.2235ZM36.5594 38.4654C36.5341 38.7406 36.4327 39.0034 36.2681 39.2286C36.1287 39.4162 35.9387 39.5288 35.7107 39.5663C35.4826 39.6039 35.2546 39.5538 35.0773 39.4162L34.0892 38.7156L32.151 37.3395C31.7583 37.0517 31.2009 37.1518 30.9095 37.5396C30.6182 37.9275 30.7195 38.4779 31.1122 38.7657L33.0504 40.1418C33.3798 40.3795 33.5951 40.7423 33.6585 41.1426C33.7091 41.543 33.5951 41.9433 33.3291 42.2686C32.8477 42.8566 31.9103 42.9441 31.2516 42.4813L31.0616 42.3436L31.0489 42.3311L28.6547 40.6297C28.262 40.342 27.7046 40.4421 27.4132 40.8299C27.1219 41.2177 27.2232 41.7682 27.6159 42.0559L30.0101 43.7573C30.4282 44.0576 30.6562 44.5705 30.6055 45.0959C30.5802 45.3587 30.4915 45.5964 30.3395 45.7965C30.1115 46.1093 29.7694 46.322 29.3767 46.3845C28.984 46.4471 28.5913 46.3595 28.2746 46.1218L27.1092 45.2961C27.1092 45.2961 27.0965 45.2961 27.0965 45.2836L24.829 43.6698C24.4363 43.382 23.8789 43.4821 23.5875 43.8699C23.2962 44.2577 23.3975 44.8082 23.7902 45.0959L26.0578 46.7098C26.2605 46.8474 26.3745 47.0601 26.3998 47.2978C26.4251 47.5355 26.3491 47.7732 26.1971 47.9608C25.9311 48.2611 25.4624 48.3236 25.0697 48.0984L22.7515 46.7848C22.7641 46.7473 22.7768 46.7223 22.7895 46.6848C22.7895 46.6723 22.8021 46.6472 22.8021 46.6347C22.8148 46.5972 22.8275 46.5597 22.8275 46.5221C22.8275 46.5096 22.8401 46.4971 22.8401 46.4846C22.8528 46.4471 22.8528 46.397 22.8655 46.3595C22.8655 46.347 22.8655 46.3345 22.8781 46.322C22.8908 46.2719 22.8908 46.2094 22.9035 46.1593C22.9921 45.2711 22.5994 44.4079 21.8647 43.8824C21.8014 43.8324 21.738 43.7949 21.6747 43.7573C21.6494 43.7448 21.6367 43.7323 21.6113 43.7198C21.5607 43.6948 21.5227 43.6698 21.472 43.6447C21.4467 43.6322 21.4213 43.6197 21.396 43.6072C21.3453 43.5822 21.3073 43.5697 21.2566 43.5572C21.2313 43.5446 21.206 43.5321 21.1806 43.5321C21.168 43.5321 21.1426 43.5196 21.13 43.5196V43.5071C21.1426 43.4821 21.1553 43.4446 21.168 43.4195C21.1806 43.3945 21.1806 43.382 21.1933 43.357C21.206 43.3195 21.2186 43.2944 21.2186 43.2569C21.2186 43.2319 21.2313 43.2194 21.2313 43.1944C21.244 43.1568 21.244 43.1193 21.2566 43.0818C21.2566 43.0693 21.2693 43.0442 21.2693 43.0317C21.282 42.9817 21.282 42.9191 21.2947 42.8691C21.3833 41.9808 20.9906 41.1176 20.2559 40.5922C20.1925 40.5421 20.1165 40.5046 20.0532 40.4671C20.0279 40.4546 20.0152 40.4421 19.9899 40.4296C19.9392 40.4045 19.8885 40.3795 19.8379 40.3545C19.8125 40.342 19.7998 40.342 19.7745 40.3295C19.7238 40.3044 19.6732 40.2919 19.6098 40.2669C19.5845 40.2544 19.5718 40.2544 19.5465 40.2419C19.4831 40.2294 19.4325 40.2044 19.3691 40.1919C19.3565 40.1919 19.3311 40.1793 19.3185 40.1793C19.2551 40.1668 19.1918 40.1543 19.1285 40.1418C19.1158 40.1418 19.1031 40.1418 19.0904 40.1418C19.0271 40.1293 18.9511 40.1293 18.8878 40.1293C18.8751 40.1293 18.8624 40.1293 18.8624 40.1293C18.7864 40.1293 18.7104 40.1293 18.6471 40.1293H18.6344C18.6217 40.1293 18.6091 40.1293 18.5964 40.1293C18.5964 40.1168 18.5837 40.1043 18.5837 40.0918C18.5711 40.0417 18.5584 39.9917 18.5457 39.9416C18.5457 39.9166 18.5331 39.9041 18.5204 39.8791C18.5077 39.8291 18.4824 39.779 18.4571 39.729C18.4571 39.7165 18.4444 39.7039 18.4444 39.6914C18.4191 39.6289 18.3937 39.5788 18.3557 39.5163C18.343 39.5038 18.343 39.4913 18.3304 39.4663C18.305 39.4287 18.2797 39.3787 18.2544 39.3411C18.2417 39.3286 18.229 39.3036 18.2164 39.2911C18.1784 39.2411 18.153 39.191 18.115 39.1535L18.1024 39.141C18.0644 39.0909 18.0137 39.0409 17.9757 38.9909C17.963 38.9783 17.9503 38.9658 17.9377 38.9533C17.8997 38.9158 17.8617 38.8783 17.8237 38.8532C17.811 38.8407 17.7983 38.8282 17.773 38.8157C17.7223 38.7782 17.6716 38.7281 17.6083 38.6906C17.0636 38.3028 16.3922 38.1401 15.7335 38.2527C15.6575 38.2652 15.5815 38.2778 15.5181 38.3028C15.5054 38.3028 15.4801 38.3153 15.4674 38.3153C15.4041 38.3278 15.3408 38.3528 15.2774 38.3778C15.2648 38.3778 15.2648 38.3778 15.2521 38.3904C15.1888 38.4154 15.1127 38.4404 15.0494 38.4779C15.0367 38.4904 15.0114 38.4904 14.9987 38.5029C14.9481 38.528 14.8847 38.5655 14.8341 38.5905C14.8214 38.603 14.8087 38.603 14.796 38.603C14.7327 38.6406 14.682 38.6781 14.6187 38.7281C14.606 38.7406 14.5934 38.7532 14.5807 38.7657C14.5554 38.7782 14.5427 38.8032 14.5174 38.8157C14.4794 38.7657 14.4413 38.7156 14.4033 38.6656C14.3907 38.6531 14.378 38.6406 14.3653 38.6281C14.34 38.5905 14.302 38.553 14.2767 38.528C14.264 38.5155 14.2513 38.5029 14.226 38.4779C14.188 38.4404 14.1627 38.4154 14.1246 38.3904C14.112 38.3778 14.0993 38.3653 14.074 38.3528C14.0233 38.3153 13.9726 38.2778 13.922 38.2402C13.8586 38.2027 13.7953 38.1527 13.7319 38.1276C13.7193 38.1151 13.6939 38.1026 13.6813 38.0901C13.6306 38.0651 13.5799 38.0401 13.5293 38.015C13.5166 38.0025 13.4913 38.0025 13.4786 37.99C13.4153 37.965 13.3646 37.94 13.3012 37.915C13.2759 37.9024 13.2379 37.8899 13.2126 37.8899C13.1746 37.8774 13.1492 37.8649 13.1112 37.8649C13.0606 37.8524 12.9972 37.8399 12.9465 37.8274C12.9085 37.8149 12.8832 37.8149 12.8452 37.8149C12.8072 37.8149 12.7692 37.8024 12.7312 37.8024C12.7059 37.8024 12.6678 37.8024 12.6425 37.7899C12.5918 37.7899 12.5285 37.7899 12.4778 37.7899C12.4398 37.7899 12.3892 37.7899 12.3512 37.7899C12.3131 37.7899 12.2878 37.7899 12.2498 37.8024C12.1991 37.8024 12.1485 37.8149 12.1105 37.8149C12.0978 37.8149 12.0725 37.8149 12.0598 37.8149C12.0471 37.8149 12.0345 37.8149 12.0218 37.8274C11.9711 37.8399 11.9204 37.8524 11.8571 37.8649C11.8318 37.8774 11.7938 37.8774 11.7684 37.8899C11.7178 37.9024 11.6671 37.915 11.6291 37.94C11.5911 37.9525 11.5531 37.965 11.5151 37.9775C11.4897 37.99 11.4644 38.0025 11.4264 38.015C10.679 36.1885 9.55156 34.6247 8.13276 33.4112L14.15 25.1668C15.3408 25.8674 16.6709 26.3553 18.0897 26.6055L17.3296 33.9992C17.2156 35.1126 18.039 36.1009 19.1538 36.2135C20.2052 36.3136 21.2186 36.0134 22.0294 35.3628C22.8401 34.7123 23.3468 33.774 23.4609 32.7482L23.6635 30.809C24.6896 30.7715 25.6904 30.4713 26.5771 29.9583L35.964 37.1143C36.0274 37.1643 36.0654 37.2019 36.1034 37.2269L36.116 37.2394C36.1287 37.2519 36.154 37.2769 36.1667 37.2894L36.192 37.3145C36.2047 37.327 36.2047 37.3395 36.2174 37.3395L36.2427 37.3645C36.2554 37.377 36.268 37.3895 36.2807 37.402L36.3567 37.5146C36.3947 37.5647 36.4201 37.6147 36.4327 37.6522L36.4454 37.6773C36.4581 37.7023 36.4707 37.7148 36.4707 37.7398C36.4834 37.7648 36.4961 37.7899 36.4961 37.8149C36.5087 37.8399 36.5087 37.8649 36.5214 37.8899L36.5467 37.965C36.5594 38.0276 36.5721 38.0901 36.5847 38.1401V38.1652C36.5847 38.1902 36.5847 38.2152 36.5974 38.2402V38.2527V38.3153C36.5721 38.3403 36.5721 38.4029 36.5594 38.4654ZM37.7122 36.3637L37.6995 36.3386C37.6615 36.2886 37.6362 36.2511 37.6108 36.2261C37.6108 36.2261 37.6108 36.2135 37.5982 36.2135C37.5855 36.201 37.5728 36.1885 37.5602 36.1635C37.5475 36.151 37.5475 36.151 37.5348 36.1385C37.5095 36.1135 37.4968 36.0884 37.4715 36.0634C37.4335 36.0134 37.3828 35.9758 37.3448 35.9383C37.3322 35.9258 37.3195 35.9133 37.3068 35.9008C37.2941 35.8883 37.2941 35.8883 37.2815 35.8758C37.2688 35.8632 37.2688 35.8633 37.2561 35.8507C37.1928 35.8007 37.1295 35.7381 37.0408 35.6756L26.6025 27.719L26.0578 28.1193C25.1583 28.7824 24.0562 29.0951 22.9288 28.9825L22.0421 28.8949L21.6747 32.5105C21.6113 33.0734 21.3327 33.5864 20.8893 33.9492C20.4459 34.312 19.8759 34.4746 19.3058 34.412C19.1538 34.3995 19.0524 34.2619 19.0651 34.1243L19.6985 27.9817L24.2336 25.7799L25.4877 25.1668L25.5637 25.1293C25.8931 24.9291 26.2098 24.7665 26.5265 24.6289C27.2105 24.3286 27.9326 24.1035 28.6547 23.9909C29.5668 23.8407 30.5042 23.8407 31.4289 23.9909C33.4811 24.3286 35.5206 24.166 37.3702 23.553L41.5885 32.8232C40.0937 33.6739 38.7636 34.8749 37.7122 36.3637Z" fill="#880E4F"></path> <path d="M25.4465 6.8296C25.2363 6.7038 24.9765 6.77928 24.8528 6.99313L22.6264 10.9053C22.5027 11.1192 22.577 11.3834 22.7872 11.5092C22.8614 11.5469 22.9356 11.572 22.9975 11.572C23.1459 11.572 23.2943 11.4966 23.3686 11.3456L25.595 7.43341C25.731 7.21956 25.6568 6.95539 25.4465 6.8296Z" fill="#880E4F"></path> <path d="M23.4523 8.08913C23.7045 7.84026 23.7045 7.43678 23.4523 7.18791C23.2001 6.93905 22.7913 6.93905 22.5391 7.18791C22.2869 7.43678 22.2869 7.84026 22.5391 8.08913C22.7913 8.33799 23.2001 8.33799 23.4523 8.08913Z" fill="#880E4F"></path> <path d="M25.2213 11.1353C25.5879 11.1353 25.8851 10.891 25.8851 10.5895C25.8851 10.288 25.5879 10.0436 25.2213 10.0436C24.8548 10.0436 24.5576 10.288 24.5576 10.5895C24.5576 10.891 24.8548 11.1353 25.2213 11.1353Z" fill="#880E4F"></path> <path d="M44.7761 31.8661C44.8271 31.8661 44.8654 31.8777 44.9164 31.8777C45.2227 31.8777 45.5163 31.7852 45.746 31.6116C46.014 31.4034 46.1927 31.1258 46.231 30.8019C46.2693 30.4779 46.1672 30.1656 45.9375 29.9227C45.7077 29.6797 45.4014 29.5178 45.0441 29.4831C44.6867 29.4484 44.3421 29.5409 44.0741 29.7492C43.8061 29.9574 43.6274 30.235 43.5891 30.5589C43.5253 31.2183 44.0614 31.8083 44.7761 31.8661ZM44.4825 30.6399C44.4953 30.5358 44.5463 30.4432 44.6357 30.3738C44.7122 30.316 44.8016 30.2813 44.9037 30.2813C44.9164 30.2813 44.9292 30.2813 44.942 30.2813C45.0568 30.2929 45.1589 30.3391 45.2355 30.4201C45.3121 30.5011 45.3376 30.6052 45.3248 30.7093C45.3121 30.8134 45.261 30.906 45.1717 30.9754C45.0824 31.0448 44.9675 31.0679 44.8526 31.0564C44.6357 31.0448 44.4698 30.8481 44.4825 30.6399Z" fill="#880E4F"></path> <path d="M6.63001 30.6971C6.70654 29.9813 6.17082 29.3407 5.44378 29.2654C5.08664 29.2277 4.74225 29.3282 4.4744 29.5542C4.20654 29.7803 4.02797 30.0817 3.9897 30.4334C3.91317 31.1493 4.44889 31.7898 5.17593 31.8652C5.22695 31.8652 5.26521 31.8777 5.31623 31.8777C5.99225 31.8652 6.56623 31.3628 6.63001 30.6971ZM4.89531 30.5213C4.90807 30.4083 4.95909 30.3078 5.04838 30.2324C5.12491 30.1696 5.21419 30.132 5.31623 30.132C5.32899 30.132 5.34174 30.132 5.3545 30.132C5.58409 30.1571 5.76266 30.358 5.73715 30.5967C5.71164 30.8227 5.50756 30.9986 5.26521 30.9734C5.03562 30.9609 4.8698 30.7599 4.89531 30.5213Z" fill="#880E4F"></path> <path d="M35.1771 10.1777H31.4961V0H16.7468V10.1777H13.0532L24.1215 22.2707L35.1771 10.1777ZM17.0368 11.9303H17.6797H18.4991H19.0412C19.5328 11.9303 19.9236 11.5422 19.9236 11.054C19.9236 10.5658 19.5328 10.1777 19.0412 10.1777H18.4991V1.75262H29.7186V10.1777H29.1766C28.6849 10.1777 28.2941 10.5658 28.2941 11.054C28.2941 11.5422 28.6849 11.9303 29.1766 11.9303H29.7186H30.538H31.1809L24.1089 19.6669L17.0368 11.9303Z" fill="#880E4F"></path> </svg> 