<?xml version="1.0" encoding="UTF-8"?> <svg xmlns="http://www.w3.org/2000/svg" width="50" height="50" viewBox="0 0 50 50" fill="none"> <path d="M36.2905 26.6129H34.6776C34.6776 27.5024 33.9542 28.2258 33.0647 28.2258C32.1752 28.2258 31.4518 27.5024 31.4518 26.6129H29.8389C29.8389 28.3919 31.2856 29.8387 33.0647 29.8387C34.8437 29.8387 36.2905 28.3919 36.2905 26.6129Z" fill="#880E4F"></path> <path d="M46.1403 36.8427L37.9032 34.096V32.425C39.6855 31.2597 41.0194 29.471 41.604 27.371C43.6016 27.1331 45.1613 25.4476 45.1613 23.3871V16.9355C45.1613 10.2653 39.7347 4.83871 33.0645 4.83871C27.4645 4.83871 22.7548 8.66855 21.3831 13.8435C21.2395 13.6815 21.104 13.5121 20.9508 13.3589L16.375 8.78306L19.7105 4.11452C20.0056 3.70323 20.1613 3.21694 20.1613 2.70887V2.41935C20.1613 1.08548 19.0758 0 17.7419 0C16.6694 0 16.1 0.651613 15.7226 1.08226C15.371 1.48306 15.2306 1.6129 14.9169 1.6129C14.6024 1.6129 14.4629 1.48306 14.1105 1.08145C13.7331 0.650807 13.1637 0 12.0919 0C11.021 0 10.4516 0.651613 10.0742 1.08226C9.72419 1.48306 9.58387 1.6129 9.27097 1.6129C8.95806 1.6129 8.81855 1.48306 8.46855 1.08226C8.09194 0.651613 7.52258 0 6.45161 0C5.11774 0 4.03226 1.08548 4.03226 2.41935V2.70887C4.03226 3.21694 4.1879 3.70242 4.48306 4.11452L7.81855 8.78306L3.24274 13.3589C1.15161 15.45 0 18.2298 0 21.1871C0 27.2919 4.96613 32.2581 11.071 32.2581H13.1234C17.1024 32.2581 20.7548 30.1073 22.7161 26.7032C23.2419 27.0669 23.8613 27.2919 24.5258 27.371C25.1097 29.4718 26.4444 31.2597 28.2266 32.425V34.096L19.9895 36.8419C17.6806 37.6113 16.129 39.7637 16.129 42.1968V50H50V42.1968C50 39.7637 48.4484 37.6113 46.1403 36.8427ZM41.9016 25.6685C41.9185 25.4468 41.9355 25.2258 41.9355 25V21.1161C42.8718 21.45 43.5484 22.3371 43.5484 23.3871C43.5484 24.4492 42.8556 25.3444 41.9016 25.6685ZM33.0645 6.45161C38.8452 6.45161 43.5484 11.1548 43.5484 16.9355V20.1823C43.0774 19.8258 42.5347 19.5589 41.9355 19.4371V17.7419H39.5161C37.2444 17.7419 35.0734 16.6565 33.7097 14.8379L33.0645 13.979L32.4194 14.8379C31.0556 16.6565 28.8847 17.7419 26.6129 17.7419H24.1935V19.4363C23.5944 19.5589 23.0516 19.825 22.5806 20.1815V16.9355C22.5806 11.1548 27.2839 6.45161 33.0645 6.45161ZM5.64516 2.70887V2.41935C5.64516 1.97419 6.00645 1.6129 6.45161 1.6129C6.76452 1.6129 6.90403 1.74274 7.25403 2.14355C7.63065 2.57419 8.2 3.22581 9.27097 3.22581C10.3419 3.22581 10.9113 2.57419 11.2887 2.14355C11.6395 1.74274 11.779 1.6129 12.0919 1.6129C12.4056 1.6129 12.5452 1.74274 12.8976 2.14355C13.275 2.57419 13.8444 3.22581 14.9169 3.22581C15.9887 3.22581 16.5581 2.575 16.9355 2.14435C17.2879 1.74274 17.4274 1.6129 17.7419 1.6129C18.1871 1.6129 18.5484 1.97419 18.5484 2.41935V2.70887C18.5484 2.87823 18.4968 3.04032 18.3984 3.17742L14.9081 8.06452H9.28548L5.79516 3.17742C5.69677 3.04113 5.64516 2.87823 5.64516 2.70887ZM13.1226 30.6452H11.0702C5.85565 30.6452 1.6129 26.4024 1.6129 21.1871C1.6129 18.6605 2.59677 16.2855 4.38306 14.4992L9.20484 9.67742H14.9887L19.8105 14.4992C20.2637 14.9524 20.6629 15.4589 21.0153 15.9944C20.9911 16.3056 20.9677 16.6177 20.9677 16.9355V23.3871C20.9677 24.1468 21.1911 24.85 21.5581 25.4573C19.954 28.6202 16.6919 30.6452 13.1226 30.6452ZM22.5806 23.3871C22.5806 22.3371 23.2573 21.45 24.1935 21.1161V25C24.1935 25.2258 24.2105 25.4468 24.2274 25.6685C23.2734 25.3444 22.5806 24.4492 22.5806 23.3871ZM25.8065 25V19.3548H26.6129C29.0548 19.3548 31.4008 18.3298 33.0645 16.571C34.7282 18.3298 37.0742 19.3548 39.5161 19.3548H40.3226V25C40.3226 29.0024 37.0669 32.2581 33.0645 32.2581C29.0621 32.2581 25.8065 29.0024 25.8065 25ZM33.0645 33.871C34.2032 33.871 35.2887 33.6476 36.2903 33.2548V34.3435L33.0645 37.5694L29.8387 34.3435V33.2548C30.8403 33.6476 31.9258 33.871 33.0645 33.871ZM40.3226 45.1613H38.7097C36.7629 45.1613 35.1339 46.5492 34.7589 48.3871H31.3702C30.9952 46.5492 29.3669 45.1613 27.4194 45.1613H25.8065V40.3226H40.3226V45.1613ZM17.7419 42.1968C17.7419 40.4589 18.85 38.921 20.4992 38.3718L28.8145 35.6L31.9242 38.7097H24.1935V45.1613H22.5806V41.9355H20.9677V46.7742H27.4194C28.4694 46.7742 29.3565 47.4508 29.6903 48.3871H17.7419V42.1968ZM48.3871 48.3871H36.4387C36.7726 47.4508 37.6597 46.7742 38.7097 46.7742H45.1613V41.9355H43.5484V45.1613H41.9355V38.7097H34.2048L37.3145 35.6L45.6298 38.3718C47.279 38.9218 48.3871 40.4589 48.3871 42.1968V48.3871Z" fill="#880E4F"></path> <path d="M29.0325 22.5806C29.4779 22.5806 29.839 22.2196 29.839 21.7742C29.839 21.3288 29.4779 20.9677 29.0325 20.9677C28.5871 20.9677 28.2261 21.3288 28.2261 21.7742C28.2261 22.2196 28.5871 22.5806 29.0325 22.5806Z" fill="#880E4F"></path> <path d="M37.097 22.5806C37.5424 22.5806 37.9034 22.2196 37.9034 21.7742C37.9034 21.3288 37.5424 20.9677 37.097 20.9677C36.6516 20.9677 36.2905 21.3288 36.2905 21.7742C36.2905 22.2196 36.6516 22.5806 37.097 22.5806Z" fill="#880E4F"></path> <path d="M6.66401 16.7806L7.55191 15.8927L6.41159 14.7524L5.52369 15.6403C5.27207 15.8919 5.03578 16.1629 4.81885 16.4476L6.10272 17.4242C6.27449 17.1968 6.46401 16.9806 6.66401 16.7806Z" fill="#880E4F"></path> <path d="M4.83898 21.1871C4.83898 20.375 4.99059 19.5895 5.28978 18.8508L3.79462 18.246C3.4172 19.1774 3.22607 20.1677 3.22607 21.1871C3.22607 24.9081 5.87204 28.1427 9.51882 28.8774L9.83736 27.296C6.94059 26.7129 4.83898 24.1436 4.83898 21.1871Z" fill="#880E4F"></path> <path d="M12.0969 16.129C12.9864 16.129 13.7098 16.8524 13.7098 17.7419H15.3227C15.3227 16.2427 14.2913 14.9911 12.9034 14.6306V12.9032H11.2904V14.6306C9.90255 14.9911 8.87109 16.2427 8.87109 17.7419C8.87109 19.521 10.3179 20.9677 12.0969 20.9677C12.9864 20.9677 13.7098 21.6911 13.7098 22.5806C13.7098 23.4702 12.9864 24.1936 12.0969 24.1936C11.2074 24.1936 10.484 23.4702 10.484 22.5806H8.87109C8.87109 24.0798 9.90255 25.3315 11.2904 25.6919V27.4194H12.9034V25.6919C14.2913 25.3315 15.3227 24.0798 15.3227 22.5806C15.3227 20.8016 13.8759 19.3548 12.0969 19.3548C11.2074 19.3548 10.484 18.6315 10.484 17.7419C10.484 16.8524 11.2074 16.129 12.0969 16.129Z" fill="#880E4F"></path> </svg> 