<?xml version="1.0" encoding="UTF-8"?> <svg xmlns="http://www.w3.org/2000/svg" width="500" height="500" viewBox="0 0 500 500" fill="none"> <path d="M231.5 0.600006C229.9 0.800018 224.2 1.50003 219 2.10001C175.5 7.00003 132.1 25.2 95 53.9C84 62.4 62.3 84.1 53.8 95.1C26.1 130.8 9.29995 170.3 2.29995 215.7C-4.88162e-05 230.7 -4.88162e-05 269.3 2.29995 284.3C13.5 357 51.6 417.7 111 457.5C144 479.6 177.9 492.3 219.5 498.2C233 500.1 269.8 499.8 284.5 497.7C321.8 492.2 357.6 478.5 388 458.2C449.7 416.9 487.6 355.7 498.2 280.5C499.9 268.6 499.8 231.2 498.1 219C489.3 155.5 458.7 99.1 411.5 59.3C375.8 29.1 331.3 9.10001 285 2.50003C274.2 0.900024 238.3 -0.399994 231.5 0.600006ZM323.6 98.1C337.6 99.6 347.2 102.3 358.5 107.9C378.7 117.9 391.1 132.3 398.6 154.3C403.8 169.6 404 172.6 404 250C404 308.6 403.7 323.3 402.5 330.1C395.2 371.9 367.6 397 323.5 402C311.5 403.3 188.3 403.3 176.5 402C144.2 398.3 119.9 383.4 107.4 359.7C102.8 350.9 99.2999 340.5 97.5 330.1C95.2999 317.8 95.2999 182.2 97.5 169.9C100.3 153.6 106.9 138.5 115.9 127.5C128.6 112 151 100.9 175 98.1C186.2 96.8 312.1 96.8 323.6 98.1Z" fill="#880E4F"></path> <path d="M211.5 126.1C170.7 126.8 168.1 127.1 154.4 133.6C141.6 139.6 130.9 153.7 126.4 170.5C124.6 177 124.5 182.2 124.5 250C124.5 317.8 124.6 323 126.4 329.5C130.9 346.3 141.6 360.4 154.4 366.4C168.1 372.9 170.6 373.2 212.3 373.9C233 374.2 267 374.2 287.8 373.9C329.4 373.2 331.9 372.9 345.6 366.4C358.4 360.4 369.1 346.3 373.6 329.5C375.4 323 375.5 317.8 375.5 250C375.5 182.2 375.4 177 373.6 170.5C369.1 153.7 358.4 139.6 345.6 133.6C333 127.6 328.1 126.8 301.5 126.4C288.3 126.2 271 125.9 263 125.7C255 125.6 231.9 125.8 211.5 126.1ZM338.4 154.4C340.2 155.2 343 157.5 344.6 159.6C347 162.7 347.5 164.3 347.5 169.1C347.5 173.4 347 175.6 345.4 177.7C337.9 187.8 323.7 187.6 317.7 177.2C315.2 172.9 315.2 165.2 317.6 161C321.6 154.2 330.9 151.3 338.4 154.4ZM268.7 171C305.7 179.8 331 212 331 250C331 295.4 295.4 331 250 331C204.7 331 169 295.3 169 250C169 212.2 194.1 180.1 230.8 171C241.5 168.4 257.9 168.4 268.7 171Z" fill="#880E4F"></path> <path d="M234 200.3C216.7 206.2 204.7 218.7 199.6 235.9C198.7 239.1 198 245 198 250C198 264.6 203.2 277.2 213.1 287C223.2 297 235.5 302 250 302C264.6 302 277.2 296.8 287 286.9C297 276.8 302 264.5 302 250C302 226.1 287.1 206.4 264.1 199.6C255.9 197.2 242.1 197.5 234 200.3Z" fill="#880E4F"></path> </svg> 