<?xml version="1.0" encoding="UTF-8"?> <svg xmlns="http://www.w3.org/2000/svg" width="512" height="512" viewBox="0 0 512 512" fill="none"> <g clip-path="url(#clip0_104_14)"> <path d="M232.348 0.6409C168.248 7.24091 111.248 35.9409 67.4476 83.5409C5.64764 150.641 -15.0524 247.941 13.8476 335.541C26.9476 375.241 47.6476 408.441 77.9476 438.241C118.148 477.741 166.948 501.441 225.348 509.741C237.248 511.441 276.548 511.341 288.848 509.641C347.448 501.541 397.948 476.541 438.548 435.441C478.948 394.541 502.648 346.041 511.048 287.041C512.748 275.241 512.748 235.841 511.048 224.041C506.248 190.341 496.448 159.941 481.548 133.041C469.848 111.741 456.248 93.5409 438.548 75.6409C398.748 35.3409 349.248 10.3409 292.348 1.94092C280.048 0.1409 244.548 -0.659088 232.348 0.6409ZM376.348 154.941C380.748 156.841 382.848 161.041 382.848 168.041C382.848 174.441 340.548 375.241 338.348 379.641C335.148 385.841 328.248 388.141 321.248 385.541C318.848 384.641 295.748 367.941 261.948 342.841L253.548 336.641L235.448 353.941C222.148 366.541 216.348 371.541 213.948 372.041C212.148 372.441 210.448 372.541 210.248 372.241C209.948 371.941 210.648 357.441 211.848 339.841L213.948 308.041L221.048 301.541C224.848 297.941 251.948 273.441 281.148 247.041C310.448 220.541 334.348 198.341 334.348 197.541C334.348 196.441 333.248 196.041 330.848 196.141C327.948 196.241 313.148 205.141 253.148 242.841C212.448 268.541 178.548 289.541 177.948 289.541C175.248 289.541 112.148 269.241 109.148 267.441C102.748 263.441 104.148 257.541 112.448 252.841C114.648 251.641 130.548 245.141 147.848 238.541C165.148 231.841 197.848 219.241 220.348 210.541C242.948 201.841 283.148 186.341 309.848 176.041C368.348 153.441 367.748 153.641 370.648 153.541C371.848 153.541 374.448 154.141 376.348 154.941Z" fill="#880E4F"></path> </g> <defs> <clipPath id="clip0_104_14"> <rect width="512" height="512" fill="white"></rect> </clipPath> </defs> </svg> 