<?xml version="1.0" encoding="UTF-8"?> <svg xmlns="http://www.w3.org/2000/svg" width="50" height="50" viewBox="0 0 50 50" fill="none"> <path d="M47.9167 8.33333H45.8333V6.25C45.8333 5 45 4.16667 43.75 4.16667H41.6667V2.08333C41.6667 0.833333 40.8333 0 39.5833 0H2.08333C0.833333 0 0 0.833333 0 2.08333V39.5833C0 40.8333 0.833333 41.6667 2.08333 41.6667H4.16667V43.75C4.16667 45 5 45.8333 6.25 45.8333H8.33333V47.9167C8.33333 49.1667 9.16667 50 10.4167 50H47.9167C49.1667 50 50 49.1667 50 47.9167V10.4167C50 9.16667 49.1667 8.33333 47.9167 8.33333ZM4.16667 6.25V39.5833H2.08333V2.08333H39.5833V4.16667H6.25C5 4.16667 4.16667 5 4.16667 6.25ZM8.33333 10.4167V43.75H6.25V6.25H43.75V8.33333H10.4167C9.16667 8.33333 8.33333 9.16667 8.33333 10.4167ZM45.8333 45.8333H23.9583L37.5 32.2917L45.8333 40.625V45.8333ZM45.8333 37.5L37.5 29.1667L20.8333 45.8333H12.5V12.5H45.8333V37.5Z" fill="#880E4F"></path> <path d="M25 31.25C28.5417 31.25 31.25 28.5417 31.25 25C31.25 21.4583 28.5417 18.75 25 18.75C21.4583 18.75 18.75 21.4583 18.75 25C18.75 28.5417 21.4583 31.25 25 31.25ZM25 20.8333C27.2917 20.8333 29.1667 22.7083 29.1667 25C29.1667 27.2917 27.2917 29.1667 25 29.1667C22.7083 29.1667 20.8333 27.2917 20.8333 25C20.8333 22.7083 22.7083 20.8333 25 20.8333Z" fill="#880E4F"></path> </svg> 