<?xml version="1.0" encoding="UTF-8"?> <svg xmlns="http://www.w3.org/2000/svg" width="512" height="512" viewBox="0 0 512 512" fill="none"> <path d="M231.5 1.09995C151.5 9.39993 81.4 52.8999 38.8 120.7C-21.6 216.7 -10.3 343.7 66 427.2C108.3 473.5 161.1 501.2 224.5 510.2C236.3 511.9 275.6 511.8 288 510.2C345.9 502.2 397.7 476.5 437.1 436.3C450.1 423.1 452.8 420 461.4 408.6C487 374.5 503.7 332.9 510.2 287.5C511.9 275.7 511.9 236.3 510.2 224.5C505.9 194.2 498 168.4 485.5 143.1C472.1 116.3 458.5 97.2 437.2 75.7C397.7 35.7 348.3 10.8 291.5 2.39993C279.2 0.599945 243.7 -0.200043 231.5 1.09995ZM311.5 145C373.1 147.2 386.2 149.6 397.8 160.4C407.4 169.4 411.4 181.3 414.1 209.5C415.8 226.9 415.9 282.5 414.2 300.5C411.6 327.7 409.1 338 403.1 346C394.8 357 386.6 361.2 368.2 363.5C318.9 369.7 175.9 369.1 137.8 362.5C118.2 359.1 105.8 347.5 101.7 328.5C96.9 306.7 94.8 260.8 97 225.5C99.5 184.4 102.5 172.7 113.1 161.5C122.2 151.9 130.8 149.2 159.5 147C194.7 144.2 265.1 143.3 311.5 145Z" fill="#880E4F"></path> <path d="M224 256V304L228.8 301.3C290.3 266.1 306.9 256.4 306.9 256C306.9 255.6 290.3 245.9 228.8 210.7L224 208V256Z" fill="#880E4F"></path> </svg> 