<?xml version="1.0" encoding="UTF-8"?> <svg xmlns="http://www.w3.org/2000/svg" width="511" height="512" viewBox="0 0 511 512" fill="none"> <path d="M236.9 0.149994C198.3 3.84999 169.2 12.25 137.6 28.55C89.4 53.55 50.5 93.25 26.4 142.05C17.1 160.75 12.8 172.25 7.9 190.65C1.9 213.85 0.1 227.95 0 253.55C0 266.35 0.5 280.15 1.2 285.55C6.7 326.55 19.5 361.85 41 394.85L48.2 405.95L32.3 452.85C23.5 478.75 16.5 499.95 16.7 500.15C16.9 500.35 38.7 493.55 65.3 485.05C91.9 476.55 114 469.55 114.5 469.55C114.9 469.55 119 471.85 123.6 474.75C128.2 477.55 137.8 482.75 144.9 486.15C209.6 517.05 283.5 519.75 349.7 493.45C424.7 463.75 482.3 398.65 502.9 320.45C509.2 296.45 510.7 283.35 510.7 255.55C510.7 227.75 509.2 214.65 502.9 190.65C478.7 98.95 405.2 27.65 312.4 5.94998C296.8 2.34998 280.6 0.449994 260.9 0.149994C249.9 -0.0500061 239.1 -0.0500061 236.9 0.149994ZM175.9 118.75C177.6 119.65 179.9 122.05 181.1 124.25C184 129.55 208.4 188.05 209.1 191.65C210 196.15 205.5 203.85 195.6 215.05C185.2 226.75 183 230.45 183.9 234.65C185.6 242.25 208.7 272.95 223 286.45C245.1 307.35 278.5 327.25 293.4 328.35C301.1 328.85 303.8 326.75 315.6 311.15C320.9 304.05 326.5 296.95 328.2 295.35C332 291.45 337.7 290.65 344.2 293.05C352.4 296.15 402.7 320.65 406.3 323.35L409.7 325.85L409.1 336.45C407.7 363.65 398.1 377.75 372.9 390.05C348.9 401.75 330.1 401.45 293.4 388.75C244 371.65 217.9 355.35 182.4 319.65C164.6 301.85 152 286.75 137.6 266.05C113.8 232.05 104.7 205.75 107.4 179.05C109.6 157.65 117.1 141.85 132.2 126.75C139.5 119.45 149 116.45 163.4 116.95C169.5 117.15 174 117.75 175.9 118.75Z" fill="#880E4F"></path> </svg> 